<svg xmlns="http://www.w3.org/2000/svg" xmlns:xlink="http://www.w3.org/1999/xlink" width="500" zoomAndPan="magnify" viewBox="0 0 375 374.999991" height="500" preserveAspectRatio="xMidYMid meet" version="1.0"><path fill="#ceb15a" d="M 146.335938 15.714844 L 146.335938 4.683594 C 146.335938 2.257812 144.375 0.296875 141.949219 0.296875 L 4.421875 0.296875 C 1.996094 0.296875 0.0351562 2.257812 0.0351562 4.683594 L 0.0351562 179.632812 C 0.0351562 182.058594 1.996094 184.019531 4.421875 184.019531 L 14.445312 184.019531 L 14.445312 29.636719 C 14.445312 21.957031 20.6875 15.714844 28.371094 15.714844 Z M 146.335938 15.714844 " fill-opacity="1" fill-rule="nonzero"/><path fill="#ceb15a" d="M 37.925781 57.105469 C 37.925781 49.421875 44.167969 43.179688 51.832031 43.179688 L 170.28125 43.179688 L 170.28125 29.636719 C 170.28125 27.210938 168.320312 25.25 165.894531 25.25 L 28.371094 25.25 C 25.941406 25.25 23.984375 27.210938 23.984375 29.636719 L 23.984375 204.582031 C 23.984375 207.011719 25.941406 208.96875 28.371094 208.96875 L 37.925781 208.96875 Z M 37.925781 57.105469 " fill-opacity="1" fill-rule="nonzero"/><path fill="#ceb15a" d="M 47.457031 57.105469 L 47.457031 232.058594 C 47.457031 234.476562 49.417969 236.4375 51.839844 236.4375 L 189.367188 236.4375 C 191.785156 236.4375 193.75 234.476562 193.75 232.058594 L 193.75 57.105469 C 193.75 54.683594 191.785156 52.722656 189.367188 52.722656 L 51.839844 52.722656 C 49.417969 52.722656 47.457031 54.683594 47.457031 57.105469 Z M 67.042969 77.242188 L 129.238281 77.242188 L 129.238281 87.644531 L 67.042969 87.644531 Z M 67.042969 98.050781 L 170.28125 98.050781 L 170.28125 108.453125 L 67.042969 108.453125 Z M 67.042969 118.859375 L 129.238281 118.859375 L 129.238281 129.261719 L 67.042969 129.261719 Z M 67.042969 139.664062 L 129.238281 139.664062 L 129.238281 150.070312 L 67.042969 150.070312 Z M 67.042969 139.664062 " fill-opacity="1" fill-rule="nonzero"/><path fill="#ceb15a" d="M 372.347656 204.136719 C 367.003906 202.273438 364.226562 199.5 362.367188 194.15625 C 361.433594 191.472656 357.695312 191.472656 356.761719 194.15625 C 354.902344 199.5 352.125 202.277344 346.78125 204.136719 C 344.097656 205.070312 344.097656 208.808594 346.78125 209.742188 C 352.125 211.605469 354.902344 214.378906 356.761719 219.722656 C 357.695312 222.40625 361.433594 222.40625 362.367188 219.722656 C 364.230469 214.378906 367.003906 211.601562 372.347656 209.742188 C 375.03125 208.808594 375.03125 205.070312 372.347656 204.136719 Z M 372.347656 204.136719 " fill-opacity="1" fill-rule="nonzero"/><path fill="#ceb15a" d="M 180.464844 290.617188 C 175.117188 288.757812 172.34375 285.984375 170.484375 280.640625 C 169.550781 277.953125 165.808594 277.953125 164.878906 280.640625 C 163.015625 285.984375 160.242188 288.757812 154.898438 290.617188 C 152.214844 291.550781 152.214844 295.292969 154.898438 296.226562 C 160.246094 298.085938 163.019531 300.859375 164.878906 306.207031 C 165.808594 308.890625 169.550781 308.890625 170.484375 306.207031 C 172.34375 300.859375 175.117188 298.085938 180.464844 296.226562 C 183.148438 295.292969 183.148438 291.550781 180.464844 290.617188 Z M 180.464844 290.617188 " fill-opacity="1" fill-rule="nonzero"/><path fill="#ceb15a" d="M 342.472656 255.800781 L 222.511719 255.800781 C 214.8125 255.800781 208.589844 262.042969 208.589844 269.742188 L 208.589844 291.035156 L 356.394531 291.035156 L 356.394531 269.742188 C 356.394531 262.042969 350.15625 255.800781 342.472656 255.800781 Z M 342.472656 255.800781 " fill-opacity="1" fill-rule="nonzero"/><path fill="#ceb15a" d="M 30.175781 266.523438 L 39.710938 266.523438 L 39.710938 276.929688 L 30.175781 276.929688 Z M 30.175781 266.523438 " fill-opacity="1" fill-rule="nonzero"/><path fill="#ceb15a" d="M 30.175781 287.421875 L 39.710938 287.421875 L 39.710938 297.824219 L 30.175781 297.824219 Z M 30.175781 287.421875 " fill-opacity="1" fill-rule="nonzero"/><path fill="#ceb15a" d="M 353.113281 149.203125 L 362.652344 149.203125 L 362.652344 159.605469 L 353.113281 159.605469 Z M 353.113281 149.203125 " fill-opacity="1" fill-rule="nonzero"/><path fill="#ceb15a" d="M 353.113281 128.304688 L 362.652344 128.304688 L 362.652344 138.710938 L 353.113281 138.710938 Z M 353.113281 128.304688 " fill-opacity="1" fill-rule="nonzero"/><path fill="#ceb15a" d="M 283.03125 91.898438 C 299.328125 91.898438 312.835938 79.675781 314.832031 63.914062 C 315.023438 62.578125 315.109375 61.207031 315.109375 59.820312 C 315.109375 57.964844 314.953125 56.144531 314.640625 54.375 C 313.71875 48.980469 311.421875 44.050781 308.152344 39.929688 L 316.46875 29.003906 L 308.878906 23.226562 L 301.148438 33.382812 C 295.988281 29.835938 289.753906 27.742188 283.03125 27.742188 C 265.34375 27.742188 250.949219 42.132812 250.949219 59.820312 C 250.949219 77.507812 265.34375 91.898438 283.03125 91.898438 Z M 283.03125 37.277344 C 287.585938 37.277344 291.820312 38.644531 295.371094 40.976562 L 281.320312 59.433594 L 274.230469 51.46875 L 267.109375 57.8125 L 278.042969 70.097656 C 278.953125 71.121094 280.25 71.699219 281.605469 71.699219 C 281.667969 71.699219 281.726562 71.695312 281.789062 71.695312 C 283.214844 71.640625 284.539062 70.953125 285.398438 69.816406 L 302.109375 47.867188 C 304.289062 51.339844 305.574219 55.425781 305.574219 59.820312 C 305.574219 66.046875 303.039062 71.664062 298.964844 75.757812 C 294.875 79.832031 289.253906 82.363281 283.03125 82.363281 C 270.597656 82.363281 260.488281 72.253906 260.488281 59.820312 C 260.488281 47.386719 270.597656 37.277344 283.03125 37.277344 Z M 283.03125 37.277344 " fill-opacity="1" fill-rule="nonzero"/><path fill="#ceb15a" d="M 324.617188 63.914062 L 352.929688 63.914062 L 352.929688 116.609375 L 362.464844 116.609375 L 362.464844 59.144531 C 362.464844 56.507812 360.332031 54.375 357.695312 54.375 L 324.519531 54.375 C 324.605469 56.359375 324.660156 58.359375 324.660156 60.375 C 324.660156 61.5625 324.644531 62.742188 324.617188 63.914062 Z M 324.617188 63.914062 " fill-opacity="1" fill-rule="nonzero"/><path fill="#ceb15a" d="M 207.339844 309.144531 C 205.238281 324.855469 198.652344 339.628906 188.351562 351.679688 L 179.957031 361.496094 C 175.5 366.730469 179.214844 374.777344 186.078125 374.777344 L 217.707031 374.777344 C 228.910156 360.367188 231.699219 334.199219 231.734375 333.941406 L 242.070312 334.980469 C 241.964844 336.089844 239.640625 358.042969 230.140625 374.777344 L 265.167969 374.777344 C 271.496094 359.015625 271.582031 334.703125 271.582031 334.460938 L 281.988281 334.460938 C 281.988281 335.5 281.917969 357.46875 276.214844 374.777344 L 342.28125 374.777344 C 350.082031 374.777344 356.394531 368.464844 356.394531 360.679688 L 356.394531 300.578125 L 208.585938 300.578125 Z M 312.246094 334.464844 L 322.652344 334.464844 L 322.652344 374.734375 L 312.246094 374.734375 Z M 312.246094 334.464844 " fill-opacity="1" fill-rule="nonzero"/><path fill="#ceb15a" d="M 270.492188 164.15625 L 270.492188 246.351562 L 294.769531 246.351562 L 294.769531 164.15625 C 294.769531 157.460938 289.339844 152.019531 282.628906 152.019531 C 275.9375 152.019531 270.492188 157.460938 270.492188 164.15625 Z M 270.492188 164.15625 " fill-opacity="1" fill-rule="nonzero"/><path fill="#ceb15a" d="M 39.902344 309.507812 L 30.363281 309.507812 L 30.363281 351.140625 C 30.363281 353.777344 32.496094 355.910156 35.132812 355.910156 L 125.144531 355.910156 L 125.144531 346.375 L 39.902344 346.375 Z M 39.902344 309.507812 " fill-opacity="1" fill-rule="nonzero"/><path fill="#ceb15a" d="M 140.382812 334.226562 C 139.464844 333.238281 138.03125 332.910156 136.773438 333.402344 C 135.519531 333.894531 134.691406 335.109375 134.691406 336.457031 L 134.691406 346.375 L 134.683594 346.375 L 134.683594 355.910156 L 134.691406 355.910156 L 134.691406 365.824219 C 134.691406 367.179688 135.523438 368.398438 136.789062 368.886719 C 138.054688 369.375 139.492188 369.035156 140.402344 368.03125 L 153.875 353.195312 C 155.019531 351.933594 155.011719 350.007812 153.851562 348.757812 Z M 140.382812 334.226562 " fill-opacity="1" fill-rule="nonzero"/></svg>