<svg xmlns="http://www.w3.org/2000/svg" xmlns:xlink="http://www.w3.org/1999/xlink" width="500" zoomAndPan="magnify" viewBox="0 0 375 374.999991" height="500" preserveAspectRatio="xMidYMid meet" version="1.0"><path fill="#ceb15a" d="M 34.574219 -0.00390625 C 16.066406 -0.00390625 1.148438 14.910156 1.148438 33.421875 L 1.148438 247.800781 C 1.148438 266.3125 16.066406 281.226562 34.574219 281.226562 L 154.945312 281.226562 L 154.945312 298.945312 C 132.265625 301.566406 118.800781 319.59375 118.800781 341.550781 L 256.078125 341.550781 C 256.078125 319.59375 242.613281 301.566406 219.914062 298.945312 L 219.914062 281.226562 L 276.414062 281.226562 L 249.089844 248.96875 L 45.5 248.96875 C 38.796875 248.96875 33.410156 242.292969 33.410156 233.988281 L 33.410156 47.234375 C 33.410156 38.929688 38.796875 32.253906 45.5 32.253906 L 329.382812 32.253906 C 336.058594 32.253906 341.476562 38.929688 341.476562 47.234375 L 341.476562 233.996094 C 341.476562 242.296875 336.058594 248.972656 329.382812 248.972656 L 328.246094 248.972656 L 347.8125 268.199219 C 351.09375 270.824219 353.457031 274.15625 354.996094 277.8125 C 366.085938 272.394531 373.703125 261.035156 373.703125 247.804688 L 373.703125 33.421875 C 373.703125 14.910156 358.785156 -0.00390625 340.277344 -0.00390625 Z M 34.574219 -0.00390625 " fill-opacity="1" fill-rule="evenodd"/><path fill="#ceb15a" d="M 186 55.820312 C 163.042969 55.820312 140.082031 64.574219 122.566406 82.082031 C 104.402344 100.257812 95.757812 124.246094 96.414062 148.035156 C 102.085938 146.289062 107.054688 147.351562 112.015625 149.261719 L 119.546875 142.871094 C 120.175781 126.726562 126.59375 110.777344 138.910156 98.429688 C 151.941406 85.417969 168.96875 78.917969 186.027344 78.917969 C 203.050781 78.917969 220.109375 85.417969 233.121094 98.429688 C 241.101562 106.410156 246.636719 115.972656 249.6875 126.097656 L 269.824219 113.769531 C 265.460938 102.160156 258.675781 91.320312 249.429688 82.078125 C 231.917969 64.570312 208.960938 55.820312 186 55.820312 Z M 186 55.820312 " fill-opacity="1" fill-rule="nonzero"/><path fill="#ceb15a" d="M 275.679688 145.007812 L 250.832031 160.207031 L 250.574219 161.570312 C 247.777344 172.957031 241.988281 183.734375 233.121094 192.605469 C 207.078125 218.625 164.925781 218.625 138.910156 192.605469 C 137.171875 190.898438 135.574219 189.074219 134.089844 187.21875 C 131.695312 195.03125 126.335938 201.59375 119.320312 205.53125 C 120.371094 206.695312 121.460938 207.835938 122.566406 208.945312 C 153.121094 239.4375 201.03125 243.886719 236.65625 219.53125 L 310.726562 306.726562 C 317.605469 315.25 330.753906 313.773438 339.765625 304.730469 C 348.808594 295.710938 350.289062 282.5625 341.761719 275.722656 L 260.015625 196.144531 C 270.65625 180.625 275.789062 162.742188 275.679688 145.007812 Z M 275.679688 145.007812 " fill-opacity="1" fill-rule="nonzero"/><path fill="#ceb15a" d="M 104.167969 167.675781 C 110.105469 167.675781 114.753906 172.328125 114.753906 178.230469 C 114.753906 184.195312 110.105469 188.839844 104.167969 188.839844 C 98.238281 188.839844 93.585938 184.167969 93.585938 178.230469 C 93.585938 172.332031 98.238281 167.675781 104.167969 167.675781 Z M 224.191406 138.25 C 230.121094 138.25 234.769531 142.871094 234.769531 148.800781 C 234.769531 154.738281 230.121094 159.410156 224.191406 159.410156 C 218.28125 159.410156 213.609375 154.738281 213.609375 148.800781 C 213.609375 142.871094 218.253906 138.25 224.191406 138.25 Z M 155.96875 124.410156 C 161.902344 124.410156 166.546875 129.03125 166.546875 134.96875 C 166.546875 140.898438 161.902344 145.574219 155.96875 145.574219 C 150.070312 145.574219 145.386719 140.867188 145.386719 134.96875 C 145.386719 129.03125 150.035156 124.410156 155.96875 124.410156 Z M 300.980469 104.105469 C 306.910156 104.105469 311.585938 108.726562 311.585938 114.683594 C 311.585938 120.59375 306.90625 125.265625 300.980469 125.265625 C 295.042969 125.265625 290.421875 120.59375 290.421875 114.683594 C 290.421875 108.726562 295.015625 104.105469 300.980469 104.105469 Z M 300.980469 92.464844 C 288.773438 92.464844 278.761719 102.449219 278.761719 114.683594 C 278.761719 116.027344 279.019531 117.3125 279.242188 118.589844 L 244.304688 139.984375 C 240.851562 132.167969 233.238281 126.578125 224.195312 126.578125 C 214.980469 126.578125 207.226562 132.398438 203.890625 140.464844 L 177.84375 132.828125 C 176.707031 121.640625 167.433594 112.71875 155.96875 112.71875 C 143.761719 112.71875 133.71875 122.757812 133.71875 134.96875 C 133.71875 137.304688 134.316406 139.476562 134.972656 141.582031 L 114.609375 158.867188 C 111.5 157.15625 107.996094 156.039062 104.167969 156.039062 C 91.964844 156.039062 81.949219 166.023438 81.949219 178.230469 C 81.949219 190.4375 91.964844 200.449219 104.167969 200.449219 C 116.375 200.449219 126.386719 190.4375 126.386719 178.230469 C 126.386719 174.097656 125.074219 170.273438 123.078125 166.933594 L 141.449219 151.335938 C 145.386719 154.839844 150.347656 157.207031 155.96875 157.207031 C 164.777344 157.207031 172.257812 151.90625 175.851562 144.398438 L 202.460938 152.128906 C 204.148438 162.738281 213.15625 171.011719 224.195312 171.011719 C 235.0625 171.011719 243.992188 163.023438 245.878906 152.671875 L 284.378906 129.121094 C 288.460938 133.789062 294.363281 136.875 301.007812 136.875 C 313.214844 136.875 323.222656 126.890625 323.222656 114.683594 C 323.21875 102.445312 313.179688 92.464844 300.980469 92.464844 Z M 300.980469 92.464844 " fill-opacity="1" fill-rule="nonzero"/></svg>