<svg xmlns="http://www.w3.org/2000/svg" xmlns:xlink="http://www.w3.org/1999/xlink" width="500" zoomAndPan="magnify" viewBox="0 0 375 374.999991" height="500" preserveAspectRatio="xMidYMid meet" version="1.0"><path fill="#ceb15a" d="M 295.257812 236.980469 L 282.085938 236.980469 C 278.78125 236.980469 276.101562 239.65625 276.101562 242.964844 C 276.101562 246.273438 278.78125 248.953125 282.085938 248.953125 L 295.257812 248.953125 C 305.160156 248.953125 313.21875 240.898438 313.21875 230.992188 L 313.21875 75.34375 C 313.21875 65.4375 305.160156 57.382812 295.257812 57.382812 L 259.339844 57.382812 C 256.03125 57.382812 253.351562 60.0625 253.351562 63.371094 C 253.351562 66.675781 256.03125 69.355469 259.339844 69.355469 L 295.257812 69.355469 C 298.558594 69.355469 301.246094 72.042969 301.246094 75.34375 L 301.246094 230.992188 C 301.246094 234.296875 298.558594 236.980469 295.257812 236.980469 Z M 295.257812 236.980469 " fill-opacity="1" fill-rule="nonzero"/><path fill="#ceb15a" d="M 79.742188 69.355469 L 115.660156 69.355469 C 118.96875 69.355469 121.648438 66.675781 121.648438 63.371094 C 121.648438 60.0625 118.96875 57.382812 115.660156 57.382812 L 79.742188 57.382812 C 69.839844 57.382812 61.78125 65.4375 61.78125 75.34375 L 61.78125 230.992188 C 61.78125 240.898438 69.839844 248.953125 79.742188 248.953125 L 92.914062 248.953125 C 100.796875 248.78125 100.78125 237.132812 92.914062 236.980469 L 79.742188 236.980469 C 76.441406 236.980469 73.757812 234.296875 73.757812 230.992188 L 73.757812 75.34375 C 73.757812 72.042969 76.441406 69.355469 79.742188 69.355469 Z M 79.742188 69.355469 " fill-opacity="1" fill-rule="nonzero"/><path fill="#ceb15a" d="M 343.152344 260.921875 L 327.949219 260.921875 C 333.65625 254.558594 337.164062 246.179688 337.164062 236.980469 L 337.164062 69.355469 C 337.164062 49.550781 321.050781 33.4375 301.246094 33.4375 L 254.90625 33.4375 C 251.601562 33.4375 248.921875 36.117188 248.921875 39.421875 C 248.921875 42.730469 251.601562 45.410156 254.90625 45.410156 L 301.246094 45.410156 C 314.449219 45.410156 325.191406 56.152344 325.191406 69.355469 L 325.191406 236.980469 C 325.191406 250.167969 314.480469 260.886719 301.304688 260.921875 L 73.699219 260.921875 C 60.523438 260.886719 49.808594 250.167969 49.808594 236.980469 L 49.808594 69.355469 C 49.808594 56.152344 60.550781 45.410156 73.757812 45.410156 L 120.09375 45.410156 C 123.398438 45.410156 126.078125 42.730469 126.078125 39.421875 C 126.078125 36.117188 123.398438 33.4375 120.09375 33.4375 L 73.757812 33.4375 C 53.949219 33.4375 37.835938 49.550781 37.835938 69.355469 L 37.835938 236.980469 C 37.835938 246.179688 41.34375 254.558594 47.054688 260.921875 L 31.851562 260.921875 C 0.28125 261.890625 0.144531 307.792969 31.851562 308.8125 C 31.851562 308.8125 343.152344 308.8125 343.152344 308.8125 C 374.691406 307.855469 374.886719 261.945312 343.152344 260.921875 Z M 156.78125 296.839844 C 158.449219 294.292969 160.40625 290.605469 163.976562 290.851562 C 163.976562 290.851562 211.027344 290.851562 211.027344 290.851562 C 214.570312 290.601562 216.585938 294.300781 218.21875 296.839844 Z M 343.152344 296.839844 L 232.609375 296.839844 L 225.96875 286.878906 C 222.628906 281.867188 217.042969 278.878906 211.027344 278.878906 L 163.976562 278.878906 C 157.957031 278.878906 152.371094 281.867188 149.03125 286.878906 L 142.390625 296.839844 L 31.851562 296.839844 C 16.144531 296.457031 15.996094 273.320312 31.851562 272.894531 C 54.375 272.90625 272.769531 272.890625 301.246094 272.898438 C 301.359375 272.894531 343.152344 272.894531 343.152344 272.894531 C 358.828125 273.265625 359.03125 296.410156 343.152344 296.839844 Z M 343.152344 296.839844 " fill-opacity="1" fill-rule="nonzero"/><path fill="#ceb15a" d="M 231.183594 149.074219 L 190.460938 195.820312 C 183.628906 203.089844 189.515625 216.027344 199.484375 215.65625 C 199.484375 215.660156 210.277344 215.660156 210.277344 215.660156 L 210.277344 243.609375 C 210.277344 250.210938 215.648438 255.582031 222.25 255.582031 L 258.171875 255.582031 C 264.773438 255.582031 270.144531 250.210938 270.144531 243.609375 L 270.144531 215.660156 L 280.933594 215.660156 C 290.902344 216.023438 296.789062 203.097656 289.960938 195.820312 C 289.960938 195.820312 249.238281 149.074219 249.238281 149.074219 C 244.6875 143.855469 235.730469 143.855469 231.183594 149.074219 Z M 264.15625 203.683594 C 260.851562 203.683594 258.171875 206.363281 258.171875 209.671875 L 258.171875 243.609375 L 222.25 243.609375 L 222.25 209.671875 C 222.25 206.363281 219.570312 203.683594 216.265625 203.683594 L 199.484375 203.691406 L 240.210938 156.9375 L 280.933594 203.683594 Z M 264.15625 203.683594 " fill-opacity="1" fill-rule="nonzero"/><path fill="#ceb15a" d="M 116.832031 255.582031 L 152.75 255.582031 C 159.355469 255.582031 164.722656 250.210938 164.722656 243.609375 L 164.722656 215.660156 L 175.515625 215.660156 C 185.476562 216.023438 191.378906 203.09375 184.542969 195.820312 C 184.542969 195.820312 143.816406 149.074219 143.816406 149.074219 C 139.269531 143.855469 130.3125 143.855469 125.765625 149.074219 L 85.039062 195.820312 C 78.222656 203.09375 84.089844 216.027344 94.066406 215.65625 C 94.066406 215.660156 104.859375 215.660156 104.859375 215.660156 L 104.859375 243.609375 C 104.859375 250.210938 110.226562 255.582031 116.832031 255.582031 Z M 94.035156 203.726562 C 94.066406 203.691406 134.789062 156.9375 134.789062 156.9375 L 175.515625 203.683594 L 158.738281 203.683594 C 155.429688 203.683594 152.75 206.363281 152.75 209.671875 L 152.75 243.609375 L 116.832031 243.609375 L 116.832031 209.671875 C 116.832031 206.363281 114.152344 203.683594 110.84375 203.683594 Z M 94.035156 203.726562 " fill-opacity="1" fill-rule="nonzero"/><path fill="#ceb15a" d="M 175.800781 140.6875 C 182.597656 146.40625 192.433594 146.382812 199.234375 140.652344 L 240.960938 104.960938 C 245.03125 101.570312 247.367188 96.515625 247.367188 91.085938 L 247.367188 55.167969 C 247.367188 49.820312 245.050781 44.78125 241.019531 41.339844 L 199.199219 5.566406 C 192.421875 -0.136719 182.582031 -0.140625 175.765625 5.601562 L 133.9375 41.378906 C 129.933594 44.867188 127.636719 49.898438 127.636719 55.167969 L 127.636719 91.085938 C 127.636719 96.441406 129.953125 101.484375 133.980469 104.914062 Z M 141.761719 50.4375 L 183.511719 14.730469 C 185.808594 12.792969 189.160156 12.769531 191.453125 14.695312 L 233.242188 50.445312 C 236.488281 53.632812 235.894531 57.328125 233.246094 59.890625 C 233.246094 59.890625 191.488281 95.605469 191.488281 95.605469 C 189.179688 97.550781 185.824219 97.554688 183.546875 95.636719 L 141.753906 59.886719 C 138.925781 57.574219 138.925781 52.773438 141.761719 50.4375 Z M 139.609375 73.808594 L 175.800781 104.765625 C 179.0625 107.519531 183.246094 108.996094 187.488281 109.042969 C 191.75 108.941406 195.949219 107.523438 199.230469 104.738281 L 235.394531 73.804688 L 235.394531 91.085938 C 235.394531 92.953125 234.628906 94.65625 233.238281 95.816406 L 191.488281 131.523438 C 189.179688 133.476562 185.828125 133.472656 183.546875 131.558594 L 141.753906 95.808594 C 140.410156 94.664062 139.609375 92.898438 139.609375 91.085938 Z M 139.609375 73.808594 " fill-opacity="1" fill-rule="nonzero"/></svg>