<svg xmlns="http://www.w3.org/2000/svg" xmlns:xlink="http://www.w3.org/1999/xlink" width="500" zoomAndPan="magnify" viewBox="0 0 375 374.999991" height="500" preserveAspectRatio="xMidYMid meet" version="1.0"><defs><clipPath id="7b5ad0f379"><path d="M 279 276 L 327 276 L 327 323.25 L 279 323.25 Z M 279 276 " clip-rule="nonzero"/></clipPath></defs><path fill="#ceb15a" d="M 243.570312 55.617188 C 242.554688 55.617188 241.527344 55.25 240.710938 54.503906 C 238.980469 52.925781 238.863281 50.246094 240.441406 48.515625 L 265.945312 20.585938 C 266.75 19.703125 267.886719 19.203125 269.074219 19.203125 L 332.605469 19.203125 C 334.945312 19.203125 336.847656 21.101562 336.847656 23.445312 C 336.847656 25.785156 334.945312 27.6875 332.605469 27.6875 L 270.949219 27.6875 L 246.703125 54.242188 C 245.871094 55.15625 244.71875 55.617188 243.570312 55.617188 Z M 243.570312 55.617188 " fill-opacity="1" fill-rule="nonzero"/><path fill="#ceb15a" d="M 284.023438 304.21875 L 243.570312 304.21875 C 241.230469 304.21875 239.328125 302.316406 239.328125 299.976562 C 239.328125 297.636719 241.230469 295.734375 243.570312 295.734375 L 284.023438 295.734375 C 286.367188 295.734375 288.265625 297.636719 288.265625 299.976562 C 288.265625 302.316406 286.367188 304.21875 284.023438 304.21875 Z M 284.023438 304.21875 " fill-opacity="1" fill-rule="nonzero"/><path fill="#ceb15a" d="M 321.675781 88.457031 L 243.570312 88.457031 C 241.230469 88.457031 239.328125 86.558594 239.328125 84.214844 C 239.328125 81.875 241.230469 79.972656 243.570312 79.972656 L 321.675781 79.972656 C 324.019531 79.972656 325.917969 81.875 325.917969 84.214844 C 325.917969 86.558594 324.019531 88.457031 321.675781 88.457031 Z M 321.675781 88.457031 " fill-opacity="1" fill-rule="nonzero"/><path fill="#ceb15a" d="M 285.390625 127.207031 L 243.570312 127.207031 C 241.230469 127.207031 239.328125 125.304688 239.328125 122.964844 C 239.328125 120.621094 241.230469 118.722656 243.570312 118.722656 L 285.390625 118.722656 C 287.730469 118.722656 289.632812 120.621094 289.632812 122.964844 C 289.632812 125.304688 287.730469 127.207031 285.390625 127.207031 Z M 285.390625 127.207031 " fill-opacity="1" fill-rule="nonzero"/><path fill="#ceb15a" d="M 321.675781 165.953125 L 243.570312 165.953125 C 241.230469 165.953125 239.328125 164.050781 239.328125 161.710938 C 239.328125 159.367188 241.230469 157.46875 243.570312 157.46875 L 321.675781 157.46875 C 324.019531 157.46875 325.917969 159.367188 325.917969 161.710938 C 325.917969 164.050781 324.019531 165.953125 321.675781 165.953125 Z M 321.675781 165.953125 " fill-opacity="1" fill-rule="nonzero"/><path fill="#ceb15a" d="M 285.390625 204.699219 L 243.570312 204.699219 C 241.230469 204.699219 239.328125 202.800781 239.328125 200.457031 C 239.328125 198.117188 241.230469 196.214844 243.570312 196.214844 L 285.390625 196.214844 C 287.730469 196.214844 289.632812 198.117188 289.632812 200.457031 C 289.632812 202.800781 287.730469 204.699219 285.390625 204.699219 Z M 285.390625 204.699219 " fill-opacity="1" fill-rule="nonzero"/><path fill="#ceb15a" d="M 321.675781 243.445312 L 243.570312 243.445312 C 241.230469 243.445312 239.328125 241.546875 239.328125 239.203125 C 239.328125 236.863281 241.230469 234.960938 243.570312 234.960938 L 321.675781 234.960938 C 324.019531 234.960938 325.917969 236.863281 325.917969 239.203125 C 325.917969 241.546875 324.019531 243.445312 321.675781 243.445312 Z M 321.675781 243.445312 " fill-opacity="1" fill-rule="nonzero"/><path fill="#ceb15a" d="M 351.667969 46.742188 C 338.824219 46.742188 328.371094 36.289062 328.371094 23.445312 C 328.371094 10.597656 338.824219 0.144531 351.667969 0.144531 C 364.511719 0.144531 374.964844 10.597656 374.964844 23.445312 C 374.964844 36.289062 364.511719 46.742188 351.667969 46.742188 Z M 351.667969 8.621094 C 343.5 8.621094 336.855469 15.265625 336.855469 23.433594 C 336.855469 31.605469 343.5 38.25 351.667969 38.25 C 359.839844 38.25 366.480469 31.605469 366.480469 23.433594 C 366.480469 15.273438 359.839844 8.621094 351.667969 8.621094 Z M 351.667969 8.621094 " fill-opacity="1" fill-rule="nonzero"/><path fill="#ceb15a" d="M 340.734375 107.511719 C 327.886719 107.511719 317.433594 97.0625 317.433594 84.214844 C 317.433594 71.371094 327.886719 60.917969 340.734375 60.917969 C 353.578125 60.917969 364.03125 71.371094 364.03125 84.214844 C 364.03125 97.0625 353.585938 107.511719 340.734375 107.511719 Z M 340.734375 69.394531 C 332.5625 69.394531 325.917969 76.039062 325.917969 84.207031 C 325.917969 92.378906 332.5625 99.019531 340.734375 99.019531 C 348.902344 99.019531 355.546875 92.378906 355.546875 84.207031 C 355.546875 76.039062 348.902344 69.394531 340.734375 69.394531 Z M 340.734375 69.394531 " fill-opacity="1" fill-rule="nonzero"/><path fill="#ceb15a" d="M 304.445312 146.261719 C 291.601562 146.261719 281.148438 135.808594 281.148438 122.964844 C 281.148438 110.117188 291.601562 99.65625 304.445312 99.65625 C 317.289062 99.65625 327.742188 110.109375 327.742188 122.953125 C 327.742188 135.800781 317.300781 146.261719 304.445312 146.261719 Z M 304.445312 108.140625 C 296.277344 108.140625 289.632812 114.785156 289.632812 122.953125 C 289.632812 131.125 296.277344 137.769531 304.445312 137.769531 C 312.617188 137.769531 319.257812 131.125 319.257812 122.953125 C 319.257812 114.785156 312.617188 108.140625 304.445312 108.140625 Z M 304.445312 108.140625 " fill-opacity="1" fill-rule="nonzero"/><path fill="#ceb15a" d="M 340.734375 185.007812 C 327.886719 185.007812 317.433594 174.554688 317.433594 161.710938 C 317.433594 148.867188 327.886719 138.414062 340.734375 138.414062 C 353.578125 138.414062 364.03125 148.867188 364.03125 161.710938 C 364.03125 174.554688 353.585938 185.007812 340.734375 185.007812 Z M 340.734375 146.898438 C 332.5625 146.898438 325.917969 153.539062 325.917969 161.710938 C 325.917969 169.878906 332.5625 176.523438 340.734375 176.523438 C 348.902344 176.523438 355.546875 169.878906 355.546875 161.710938 C 355.554688 153.539062 348.902344 146.898438 340.734375 146.898438 Z M 340.734375 146.898438 " fill-opacity="1" fill-rule="nonzero"/><path fill="#ceb15a" d="M 304.445312 223.761719 C 291.601562 223.761719 281.148438 213.3125 281.148438 200.464844 C 281.148438 187.621094 291.601562 177.167969 304.445312 177.167969 C 317.289062 177.167969 327.742188 187.621094 327.742188 200.464844 C 327.75 213.3125 317.300781 223.761719 304.445312 223.761719 Z M 304.445312 185.644531 C 296.277344 185.644531 289.632812 192.289062 289.632812 200.457031 C 289.632812 208.628906 296.277344 215.269531 304.445312 215.269531 C 312.617188 215.269531 319.257812 208.628906 319.257812 200.457031 C 319.257812 192.289062 312.617188 185.644531 304.445312 185.644531 Z M 304.445312 185.644531 " fill-opacity="1" fill-rule="nonzero"/><path fill="#ceb15a" d="M 340.734375 262.511719 C 327.886719 262.511719 317.433594 252.058594 317.433594 239.214844 C 317.433594 226.367188 327.886719 215.914062 340.734375 215.914062 C 353.578125 215.914062 364.03125 226.367188 364.03125 239.214844 C 364.03125 252.058594 353.585938 262.511719 340.734375 262.511719 Z M 340.734375 224.390625 C 332.5625 224.390625 325.917969 231.035156 325.917969 239.203125 C 325.917969 247.375 332.5625 254.019531 340.734375 254.019531 C 348.902344 254.019531 355.546875 247.375 355.546875 239.203125 C 355.546875 231.035156 348.902344 224.390625 340.734375 224.390625 Z M 340.734375 224.390625 " fill-opacity="1" fill-rule="nonzero"/><g clip-path="url(#7b5ad0f379)"><path fill="#ceb15a" d="M 303.089844 323.28125 C 290.242188 323.28125 279.789062 312.832031 279.789062 299.984375 C 279.789062 287.140625 290.242188 276.6875 303.089844 276.6875 C 315.933594 276.6875 326.386719 287.140625 326.386719 299.984375 C 326.386719 312.832031 315.933594 323.28125 303.089844 323.28125 Z M 303.089844 285.164062 C 294.917969 285.164062 288.273438 291.804688 288.273438 299.976562 C 288.273438 308.148438 294.917969 314.789062 303.089844 314.789062 C 311.257812 314.789062 317.902344 308.148438 317.902344 299.976562 C 317.902344 291.804688 311.257812 285.164062 303.089844 285.164062 Z M 303.089844 285.164062 " fill-opacity="1" fill-rule="nonzero"/></g><path fill="#ceb15a" d="M 24.570312 115.21875 C 11.003906 115.21875 -0.0351562 104.179688 -0.0351562 90.613281 C -0.0351562 77.046875 11.003906 66.007812 24.570312 66.007812 C 38.136719 66.007812 49.175781 77.046875 49.175781 90.613281 C 49.164062 104.179688 38.136719 115.21875 24.570312 115.21875 Z M 24.570312 74.492188 C 15.679688 74.492188 8.449219 81.722656 8.449219 90.613281 C 8.449219 99.503906 15.679688 106.734375 24.570312 106.734375 C 33.453125 106.734375 40.691406 99.503906 40.691406 90.613281 C 40.679688 81.722656 33.453125 74.492188 24.570312 74.492188 Z M 24.570312 74.492188 " fill-opacity="1" fill-rule="nonzero"/><path fill="#ceb15a" d="M 95.9375 115.21875 C 82.371094 115.21875 71.335938 104.179688 71.335938 90.613281 C 71.335938 77.046875 82.371094 66.007812 95.9375 66.007812 C 109.503906 66.007812 120.542969 77.046875 120.542969 90.613281 C 120.542969 104.179688 109.503906 115.21875 95.9375 115.21875 Z M 95.9375 74.492188 C 87.054688 74.492188 79.820312 81.722656 79.820312 90.613281 C 79.820312 99.503906 87.046875 106.734375 95.9375 106.734375 C 104.832031 106.734375 112.058594 99.503906 112.058594 90.613281 C 112.058594 81.722656 104.832031 74.492188 95.9375 74.492188 Z M 95.9375 74.492188 " fill-opacity="1" fill-rule="nonzero"/><path fill="#ceb15a" d="M 167.308594 115.21875 C 153.742188 115.21875 142.703125 104.179688 142.703125 90.613281 C 142.703125 77.046875 153.742188 66.007812 167.308594 66.007812 C 180.875 66.007812 191.910156 77.046875 191.910156 90.613281 C 191.910156 104.179688 180.875 115.21875 167.308594 115.21875 Z M 167.308594 74.492188 C 158.425781 74.492188 151.1875 81.722656 151.1875 90.613281 C 151.1875 99.503906 158.417969 106.734375 167.308594 106.734375 C 176.199219 106.734375 183.425781 99.503906 183.425781 90.613281 C 183.425781 81.722656 176.199219 74.492188 167.308594 74.492188 Z M 167.308594 74.492188 " fill-opacity="1" fill-rule="nonzero"/><path fill="#ceb15a" d="M 24.570312 195.730469 C 11.003906 195.730469 -0.0351562 184.695312 -0.0351562 171.128906 C -0.0351562 157.5625 11.003906 146.523438 24.570312 146.523438 C 38.136719 146.523438 49.175781 157.5625 49.175781 171.128906 C 49.164062 184.703125 38.136719 195.730469 24.570312 195.730469 Z M 24.570312 155.015625 C 15.679688 155.015625 8.449219 162.246094 8.449219 171.136719 C 8.449219 180.027344 15.679688 187.257812 24.570312 187.257812 C 33.453125 187.257812 40.691406 180.027344 40.691406 171.136719 C 40.691406 162.246094 33.453125 155.015625 24.570312 155.015625 Z M 24.570312 155.015625 " fill-opacity="1" fill-rule="nonzero"/><path fill="#ceb15a" d="M 95.9375 195.730469 C 82.371094 195.730469 71.335938 184.695312 71.335938 171.128906 C 71.335938 157.5625 82.371094 146.523438 95.9375 146.523438 C 109.503906 146.523438 120.542969 157.5625 120.542969 171.128906 C 120.542969 184.703125 109.503906 195.730469 95.9375 195.730469 Z M 95.9375 155.015625 C 87.054688 155.015625 79.820312 162.246094 79.820312 171.136719 C 79.820312 180.027344 87.046875 187.257812 95.9375 187.257812 C 104.832031 187.257812 112.058594 180.027344 112.058594 171.136719 C 112.058594 162.246094 104.832031 155.015625 95.9375 155.015625 Z M 95.9375 155.015625 " fill-opacity="1" fill-rule="nonzero"/><path fill="#ceb15a" d="M 167.308594 195.730469 C 153.742188 195.730469 142.703125 184.695312 142.703125 171.128906 C 142.703125 157.5625 153.742188 146.523438 167.308594 146.523438 C 180.875 146.523438 191.910156 157.5625 191.910156 171.128906 C 191.910156 184.703125 180.875 195.730469 167.308594 195.730469 Z M 167.308594 155.015625 C 158.425781 155.015625 151.1875 162.246094 151.1875 171.136719 C 151.1875 180.027344 158.417969 187.257812 167.308594 187.257812 C 176.199219 187.257812 183.425781 180.027344 183.425781 171.136719 C 183.425781 162.246094 176.199219 155.015625 167.308594 155.015625 Z M 167.308594 155.015625 " fill-opacity="1" fill-rule="nonzero"/><path fill="#ceb15a" d="M 24.570312 276.253906 C 11.003906 276.253906 -0.0351562 265.21875 -0.0351562 251.652344 C -0.0351562 238.085938 11.003906 227.046875 24.570312 227.046875 C 38.136719 227.046875 49.175781 238.085938 49.175781 251.652344 C 49.175781 265.21875 38.136719 276.253906 24.570312 276.253906 Z M 24.570312 235.539062 C 15.679688 235.539062 8.449219 242.769531 8.449219 251.660156 C 8.449219 260.550781 15.679688 267.777344 24.570312 267.777344 C 33.453125 267.777344 40.691406 260.550781 40.691406 251.660156 C 40.691406 242.769531 33.453125 235.539062 24.570312 235.539062 Z M 24.570312 235.539062 " fill-opacity="1" fill-rule="nonzero"/><path fill="#ceb15a" d="M 95.9375 276.253906 C 82.371094 276.253906 71.335938 265.21875 71.335938 251.652344 C 71.335938 238.085938 82.371094 227.046875 95.9375 227.046875 C 109.503906 227.046875 120.542969 238.085938 120.542969 251.652344 C 120.542969 265.21875 109.503906 276.253906 95.9375 276.253906 Z M 95.9375 235.539062 C 87.054688 235.539062 79.820312 242.769531 79.820312 251.660156 C 79.820312 260.550781 87.046875 267.777344 95.9375 267.777344 C 104.832031 267.777344 112.058594 260.550781 112.058594 251.660156 C 112.058594 242.769531 104.832031 235.539062 95.9375 235.539062 Z M 95.9375 235.539062 " fill-opacity="1" fill-rule="nonzero"/><path fill="#ceb15a" d="M 167.308594 276.253906 C 153.742188 276.253906 142.703125 265.21875 142.703125 251.652344 C 142.703125 238.085938 153.742188 227.046875 167.308594 227.046875 C 180.875 227.046875 191.910156 238.085938 191.910156 251.652344 C 191.910156 265.21875 180.875 276.253906 167.308594 276.253906 Z M 167.308594 235.539062 C 158.425781 235.539062 151.1875 242.769531 151.1875 251.660156 C 151.1875 260.550781 158.417969 267.777344 167.308594 267.777344 C 176.199219 267.777344 183.425781 260.550781 183.425781 251.660156 C 183.425781 242.769531 176.199219 235.539062 167.308594 235.539062 Z M 167.308594 235.539062 " fill-opacity="1" fill-rule="nonzero"/><path fill="#ceb15a" d="M 109.4375 160.140625 C 108.4375 160.140625 107.433594 159.792969 106.628906 159.070312 C 104.871094 157.519531 104.710938 154.839844 106.265625 153.082031 L 150.628906 103.023438 C 152.179688 101.269531 154.863281 101.109375 156.617188 102.660156 C 158.375 104.214844 158.535156 106.894531 156.984375 108.648438 L 112.617188 158.707031 C 111.777344 159.65625 110.617188 160.140625 109.4375 160.140625 Z M 82.441406 160.140625 C 81.269531 160.140625 80.097656 159.65625 79.265625 158.714844 L 34.902344 108.660156 C 33.351562 106.902344 33.511719 104.222656 35.269531 102.667969 C 37.023438 101.117188 39.707031 101.277344 41.257812 103.035156 L 85.621094 153.089844 C 87.175781 154.847656 87.011719 157.527344 85.257812 159.082031 C 84.441406 159.792969 83.441406 160.140625 82.441406 160.140625 Z M 82.441406 160.140625 " fill-opacity="1" fill-rule="nonzero"/><path fill="#ceb15a" d="M 146.953125 175.378906 L 116.300781 175.378906 C 113.960938 175.378906 112.058594 173.476562 112.058594 171.136719 C 112.058594 162.253906 104.832031 155.015625 95.9375 155.015625 C 87.054688 155.015625 79.820312 162.246094 79.820312 171.136719 C 79.820312 173.476562 77.917969 175.378906 75.578125 175.378906 L 44.921875 175.378906 C 42.582031 175.378906 40.679688 173.476562 40.679688 171.136719 C 40.679688 166.527344 38.703125 162.132812 35.25 159.070312 C 33.503906 157.519531 33.34375 154.839844 34.894531 153.082031 L 79.257812 103.023438 C 80.003906 102.183594 81.058594 101.667969 82.175781 101.609375 C 83.304688 101.550781 84.410156 101.921875 85.25 102.667969 C 88.203125 105.28125 91.992188 106.722656 95.9375 106.722656 C 99.882812 106.722656 103.675781 105.28125 106.628906 102.667969 C 107.46875 101.921875 108.570312 101.539062 109.699219 101.609375 C 110.820312 101.675781 111.871094 102.183594 112.617188 103.023438 L 156.984375 153.082031 C 158.535156 154.839844 158.375 157.511719 156.625 159.070312 C 153.171875 162.132812 151.195312 166.527344 151.195312 171.136719 C 151.195312 172.265625 150.746094 173.34375 149.957031 174.140625 C 149.152344 174.929688 148.074219 175.378906 146.953125 175.378906 Z M 120.179688 166.894531 L 143.085938 166.894531 C 143.796875 162.847656 145.511719 159.039062 148.074219 155.8125 L 108.851562 111.558594 C 105 113.9375 100.539062 115.207031 95.957031 115.207031 C 91.375 115.207031 86.910156 113.925781 83.058594 111.558594 L 43.835938 155.8125 C 46.398438 159.027344 48.113281 162.847656 48.828125 166.894531 L 71.734375 166.894531 C 73.753906 155.347656 83.847656 146.53125 95.972656 146.53125 C 108.054688 146.53125 118.160156 155.339844 120.179688 166.894531 Z M 120.179688 166.894531 " fill-opacity="1" fill-rule="nonzero"/><path fill="#ceb15a" d="M 146.953125 255.902344 L 116.300781 255.902344 C 113.960938 255.902344 112.058594 254 112.058594 251.660156 C 112.058594 242.777344 104.832031 235.539062 95.9375 235.539062 C 87.054688 235.539062 79.820312 242.769531 79.820312 251.660156 C 79.820312 254 77.917969 255.902344 75.578125 255.902344 L 44.921875 255.902344 C 42.582031 255.902344 40.679688 254 40.679688 251.660156 C 40.679688 247.050781 38.703125 242.65625 35.25 239.59375 C 33.503906 238.042969 33.34375 235.359375 34.894531 233.605469 L 79.257812 183.546875 C 80.003906 182.707031 81.058594 182.199219 82.175781 182.132812 C 83.304688 182.0625 84.410156 182.445312 85.25 183.191406 C 88.203125 185.804688 91.992188 187.246094 95.9375 187.246094 C 99.882812 187.246094 103.675781 185.804688 106.628906 183.191406 C 107.46875 182.445312 108.570312 182.0625 109.699219 182.132812 C 110.820312 182.199219 111.871094 182.707031 112.617188 183.546875 L 156.984375 233.605469 C 158.535156 235.359375 158.375 238.035156 156.625 239.59375 C 153.171875 242.65625 151.195312 247.050781 151.195312 251.660156 C 151.195312 252.789062 150.746094 253.867188 149.957031 254.664062 C 149.152344 255.453125 148.074219 255.902344 146.953125 255.902344 Z M 49.164062 251.660156 Z M 120.179688 247.417969 L 143.085938 247.417969 C 143.796875 243.371094 145.511719 239.5625 148.074219 236.335938 L 108.851562 192.082031 C 105 194.460938 100.539062 195.742188 95.957031 195.742188 C 91.375 195.742188 86.910156 194.460938 83.058594 192.082031 L 43.8125 236.335938 C 46.375 239.550781 48.089844 243.371094 48.800781 247.417969 L 71.707031 247.417969 C 73.726562 235.871094 83.824219 227.054688 95.949219 227.054688 C 108.054688 227.054688 118.160156 235.863281 120.179688 247.417969 Z M 120.179688 247.417969 " fill-opacity="1" fill-rule="nonzero"/><path fill="#ceb15a" d="M 82.332031 240.757812 C 81.160156 240.757812 79.988281 240.273438 79.148438 239.324219 L 34.863281 189.199219 C 33.308594 187.441406 33.476562 184.761719 35.234375 183.210938 C 36.992188 181.65625 39.671875 181.828125 41.222656 183.582031 L 85.511719 233.707031 C 87.066406 235.464844 86.894531 238.144531 85.136719 239.695312 C 84.332031 240.410156 83.332031 240.757812 82.332031 240.757812 Z M 82.332031 240.757812 " fill-opacity="1" fill-rule="nonzero"/><path fill="#ceb15a" d="M 109.4375 240.664062 C 108.4375 240.664062 107.433594 240.316406 106.628906 239.59375 C 104.871094 238.042969 104.710938 235.359375 106.265625 233.605469 L 150.628906 183.546875 C 152.179688 181.792969 154.863281 181.632812 156.617188 183.183594 C 158.375 184.734375 158.535156 187.417969 156.984375 189.171875 L 112.617188 239.230469 C 111.777344 240.179688 110.617188 240.664062 109.4375 240.664062 Z M 109.4375 240.664062 " fill-opacity="1" fill-rule="nonzero"/><path fill="#ceb15a" d="M 146.953125 94.855469 L 116.300781 94.855469 C 113.960938 94.855469 112.058594 92.953125 112.058594 90.613281 C 112.058594 88.269531 113.960938 86.371094 116.300781 86.371094 L 146.953125 86.371094 C 149.296875 86.371094 151.195312 88.269531 151.195312 90.613281 C 151.195312 92.953125 149.296875 94.855469 146.953125 94.855469 Z M 75.578125 94.855469 L 44.921875 94.855469 C 42.582031 94.855469 40.679688 92.953125 40.679688 90.613281 C 40.679688 88.269531 42.582031 86.371094 44.921875 86.371094 L 75.578125 86.371094 C 77.917969 86.371094 79.820312 88.269531 79.820312 90.613281 C 79.820312 92.953125 77.925781 94.855469 75.578125 94.855469 Z M 75.578125 94.855469 " fill-opacity="1" fill-rule="nonzero"/><path fill="#ceb15a" d="M 227.910156 319.878906 C 216.941406 319.878906 208.007812 310.957031 208.007812 299.976562 L 208.007812 42.289062 C 208.007812 31.316406 216.929688 22.382812 227.910156 22.382812 C 238.886719 22.382812 247.8125 31.308594 247.8125 42.289062 L 247.8125 299.976562 C 247.8125 310.945312 238.886719 319.878906 227.910156 319.878906 Z M 227.910156 30.875 C 221.613281 30.875 216.492188 36 216.492188 42.296875 L 216.492188 299.984375 C 216.492188 306.28125 221.613281 311.40625 227.910156 311.40625 C 234.207031 311.40625 239.328125 306.28125 239.328125 299.984375 L 239.328125 42.289062 C 239.328125 36 234.207031 30.875 227.910156 30.875 Z M 227.910156 30.875 " fill-opacity="1" fill-rule="nonzero"/><path fill="#ceb15a" d="M 212.257812 94.855469 L 187.667969 94.855469 C 185.328125 94.855469 183.425781 92.953125 183.425781 90.613281 C 183.425781 88.269531 185.328125 86.371094 187.667969 86.371094 L 212.257812 86.371094 C 214.597656 86.371094 216.5 88.269531 216.5 90.613281 C 216.5 92.953125 214.597656 94.855469 212.257812 94.855469 Z M 212.257812 94.855469 " fill-opacity="1" fill-rule="nonzero"/><path fill="#ceb15a" d="M 212.257812 175.378906 L 187.667969 175.378906 C 185.328125 175.378906 183.425781 173.476562 183.425781 171.136719 C 183.425781 168.792969 185.328125 166.894531 187.667969 166.894531 L 212.257812 166.894531 C 214.597656 166.894531 216.5 168.792969 216.5 171.136719 C 216.5 173.476562 214.597656 175.378906 212.257812 175.378906 Z M 212.257812 175.378906 " fill-opacity="1" fill-rule="nonzero"/><path fill="#ceb15a" d="M 212.257812 255.902344 L 187.667969 255.902344 C 185.328125 255.902344 183.425781 254 183.425781 251.660156 C 183.425781 249.316406 185.328125 247.417969 187.667969 247.417969 L 212.257812 247.417969 C 214.597656 247.417969 216.5 249.316406 216.5 251.660156 C 216.5 254 214.597656 255.902344 212.257812 255.902344 Z M 212.257812 255.902344 " fill-opacity="1" fill-rule="nonzero"/></svg>